# xmcd
#
# Track frame offsets:
#	150
#	16550
#	31150
#	47283
#	68593
#	84628
#	98688
#	114623
#	129743
#	167105
#	179547
#	200717
#	220265
#	233862
#	244770
#	256767
#	272950
#	289310
#	304235
#	319617
#	334688
#
# Disc length: 4737 seconds
#
# Revision: 1
# Processed by: cddbd v1.5.1PL0 Copyright (c) Steve Scherf et al.
# Submitted via: MusicWizard 7.0.2
#
DISCID=28127f15
DTITLE=Kris Kristofferson - Who's To Bless And Who's To Blame - Me And Bobby Mcgee
DYEAR=1900
DGENRE=Country
TTITLE0=The Year 2000 Minus 25
TTITLE1=If It's All The Same To You
TTITLE2=Easy, Come On
TTITLE3=Stallion
TTITLE4=Rocket To Stardom
TTITLE5=Stranger
TTITLE6=Who's To Bless And Who's To Blame
TTITLE7=Don't Cuss The Fiddle
TTITLE8=Silver (The Hunger)
TTITLE9=Blame It On The Stones
TTITLE10=To Beat The Devil
TTITLE11=Me And Bobby Mcgee
TTITLE12=The Best Of All Possible  Worlds
TTITLE13=Help Me Make It Through The Night
TTITLE14=The Law Is For Protection Of The People
TTITLE15=Casey's Last Ride
TTITLE16=Just The Other Side Of Nowhere
TTITLE17=Darby's Castle
TTITLE18=For The Goods Times
TTITLE19=Duvaliers Dream
TTITLE20=Kris Kristofferson - Sunday Mornin' Comin' Down
EXTD=
EXTT0=
EXTT1=
EXTT2=
EXTT3=
EXTT4=
EXTT5=
EXTT6=
EXTT7=
EXTT8=
EXTT9=
EXTT10=
EXTT11=
EXTT12=
EXTT13=
EXTT14=
EXTT15=
EXTT16=
EXTT17=
EXTT18=
EXTT19=
EXTT20=
PLAYORDER=
